<?xml version="1.0" encoding="utf-8"?>
<!-- Generator: Adobe Illustrator 18.1.1, SVG Export Plug-In . SVG Version: 6.00 Build 0)  -->
<svg version="1.1" id="b-b" xmlns="http://www.w3.org/2000/svg" xmlns:xlink="http://www.w3.org/1999/xlink" x="0px" y="0px"
	 width="83.8px" height="88.8px" viewBox="-469 340.2 83.8 88.8" enable-background="new -469 340.2 83.8 88.8"
	 xml:space="preserve">
<g>
	<g>
		<path fill="#FF85C9" stroke="#000000" stroke-width="0.25" stroke-miterlimit="10" d="M-416,404.1c8,0,30.8-27.2,30.8-40.3
			c0-13.1-10.6-23.8-23.7-23.8c-7.3,0-13.8,3.3-18.1,8.4c-4.4-5.1-10.9-8.4-18.1-8.4c-13.2,0-23.8,10.6-23.8,23.8
			c0,13.2,22.9,40.3,30.8,40.3H-416z"/>
		<path fill="#FF459E" d="M-417.2,404.1c7.2,0,27.7-24.4,27.7-36.2c0-11.8-9.5-21.4-21.3-21.4c-6.6,0-12.4,3-16.2,7.5
			c-4-4.6-9.8-7.5-16.2-7.5c-11.9,0-21.4,9.5-21.4,21.4s20.6,36.2,27.7,36.2H-417.2z"/>
		<path fill="#FF85C9" d="M-418.9,404.1c5.9,0,22.8-20.1,22.8-29.8s-7.8-17.6-17.5-17.6c-5.4,0-10.2,2.4-13.4,6.2
			c-3.3-3.8-8.1-6.2-13.4-6.2c-9.8,0-17.6,7.8-17.6,17.6c0,9.8,16.9,29.8,22.8,29.8H-418.9z"/>
	</g>
	<g>
		<g id="boy-to-left">
			<g>
				<g>
					<defs>
						
							<rect id="SVGID_1_" x="-430.2" y="348.8" transform="matrix(0.9816 0.1908 -0.1908 0.9816 64.702 85.5647)" width="36.4" height="60"/>
					</defs>
					<clipPath id="SVGID_2_">
						<use xlink:href="#SVGID_1_"  overflow="visible"/>
					</clipPath>
					<g clip-path="url(#SVGID_2_)">
						
							<rect x="-414.3" y="376.7" transform="matrix(0.9816 0.1908 -0.1908 0.9816 64.7188 85.637)" fill="#FFFFFF" stroke="#000000" stroke-width="0.25" stroke-miterlimit="10" width="3.9" height="4.4"/>
						<path id="baloon-skin-boy-to-left" fill="#FFB685" stroke="#000000" stroke-width="0.25" stroke-miterlimit="10" d="
							M-412.1,378.2c9.6,1.8,18.6-3,20.2-11s-5-16-14.7-17.8c-7.1-1.4-14.9,0.3-17.1,9c-0.5,2.2-2.7,2.1-3.2,4.2
							C-428.2,368.2-420.9,376.6-412.1,378.2z"/>
						<g>
							<path d="M-419.4,370.2c0.2,0.2,0.1,0.5-0.1,0.7c-1.6,1.1-3.1,1.3-4,1.4c-0.3-0.4-0.7-0.7-0.9-1.1c0.1,0,0.1,0,0.2,0
								s1.9,0.4,4.1-1.1C-419.9,369.9-419.5,370-419.4,370.2z"/>
							<circle cx="-414.4" cy="364.6" r="1"/>
							<path fill="none" stroke="#000000" stroke-linecap="round" stroke-miterlimit="10" d="M-402.5,369.1c0.4-0.8,0.4-1.6,0.3-2.2
								"/>
						</g>
						<path fill="#FFFFFF" stroke="#000000" stroke-width="0.25" stroke-miterlimit="10" d="M-412.6,403.2c0.8-3.7,1.3-6.8,1.5-8
							c0.6-4.3,3-15.1-1.9-16.1c-4.5-0.9-9.3,8.1-10,15c-0.2,1.6-0.3,4-0.2,7C-423.2,401.2-412.6,403.2-412.6,403.2z"/>
						<g>
							<path fill="none" stroke="#000000" stroke-miterlimit="10" d="M-426.8,360.1c13.6,3.2,20.4,3.1,23.2,3.1"/>
							<path fill="none" stroke="#000000" stroke-linecap="round" stroke-miterlimit="10" d="M-420.1,361.6c0.2,2.6,2.2,5.3,5.4,5.8
								c3.2,0.5,5.7-1.6,6.7-4.2"/>
						</g>
						<path fill="#679B91" stroke="#000000" stroke-width="0.25" stroke-miterlimit="10" d="M-423.2,400.4c0.1,10,2.8,28.6,4.4,26.3
							c2.2-3.4,4.4-14.7,6.4-24.3L-423.2,400.4z"/>
						<polygon fill="#679B91" stroke="#000000" stroke-width="0.25" stroke-miterlimit="10" points="-415.1,381.2 -418.1,383.6 
							-419.4,395 -424,397.4 -420.3,384 -418,380 -415.2,378.6 						"/>
						<path id="baloon-hair-boy-to-left" stroke="#1C0A01" stroke-width="0.25" stroke-miterlimit="10" d="M-398,377.1
							c1.5-1,3.4-2.4,5.3-5.6c2.8-4.9,2.2-10.8,0.6-13.5s-6.5-7.1-14.4-8.6s-12.5-0.4-16.2,4.2c8,3.6,17.4,3.7,17.4,3.7
							s0,3.4,0.3,5.4c0.3,1.7,1.3,3.3,2.7,2.9c2.6-0.8,1.7,3.8-0.4,5.9c-1.9,2-1,6.8,2.2,8.4c3.3,1.6,5.8-0.5,5.8-0.5
							C-398.9,379.4-399,378-398,377.1z"/>
					</g>
				</g>
			</g>
		</g>
		<g id="boy-to-right_1_">
			<g>
				<g>
					<defs>
						
							<rect id="SVGID_3_" x="-460.5" y="348.8" transform="matrix(-0.9816 0.1908 -0.1908 -0.9816 -804.2948 834.9996)" width="36.4" height="60"/>
					</defs>
					<clipPath id="SVGID_4_">
						<use xlink:href="#SVGID_3_"  overflow="visible"/>
					</clipPath>
					<g clip-path="url(#SVGID_4_)">
						
							<rect x="-444" y="376.5" transform="matrix(-0.9816 0.1908 -0.1908 -0.9816 -803.8162 834.7836)" fill="#FFFFFF" stroke="#000000" stroke-width="0.25" stroke-miterlimit="10" width="3.9" height="4.4"/>
						<path id="baloon-skin-boy-to-right" fill="#FFB685" stroke="#000000" stroke-width="0.25" stroke-miterlimit="10" d="
							M-427.2,362.6c-0.5-2-2.6-1.9-3.2-4.2c-2.2-8.7-10-10.3-17.1-8.9c-9.6,1.8-16.2,9.9-14.7,17.8s10.5,12.7,20.2,11
							C-433.3,376.7-425.9,368.3-427.2,362.6z"/>
						<g>
							<path d="M-434,370.2c2.2,1.5,4,1.2,4.1,1.1c0.1,0,0.1,0,0.2,0c-0.2,0.4-0.6,0.7-0.9,1.1c-0.9,0-2.4-0.2-4-1.4
								c-0.2-0.2-0.3-0.5-0.1-0.7C-434.8,370-434.3,369.9-434,370.2z"/>
							<circle cx="-439.8" cy="364.6" r="1"/>
							<path fill="none" stroke="#000000" stroke-linecap="round" stroke-miterlimit="10" d="M-452,366.9c-0.1,0.5,0,1.3,0.3,2.2"/>
						</g>
						<path fill="#FFFFFF" stroke="#000000" stroke-width="0.25" stroke-miterlimit="10" d="M-430.9,401.3c0-3,0-5.4-0.2-7
							c-0.7-6.9-5.5-15.8-10-15c-5,1-2.6,11.8-2,16.1c0.2,1.2,0.7,4.2,1.5,8C-441.5,403.3-430.9,401.3-430.9,401.3z"/>
						<g>
							<path fill="none" stroke="#000000" stroke-miterlimit="10" d="M-450.6,363.3c2.9,0.1,9.6,0.1,23.2-3.1"/>
							<path fill="none" stroke="#000000" stroke-linecap="round" stroke-miterlimit="10" d="M-446.1,363.3c1,2.6,3.6,4.7,6.7,4.2
								c3.2-0.5,5.2-3.2,5.4-5.8"/>
						</g>
						<path fill="#679B91" stroke="#000000" stroke-width="0.25" stroke-miterlimit="10" d="M-441.8,402.3c2,9.6,4.2,20.9,6.4,24.3
							c1.6,2.2,4.3-16.3,4.4-26.3L-441.8,402.3z"/>
						<polygon fill="#679B91" stroke="#000000" stroke-width="0.25" stroke-miterlimit="10" points="-439,378.7 -436.2,380 
							-433.9,384 -430.1,397.4 -434.8,395 -436.1,383.7 -439.1,381.3 						"/>
						<path id="baloon-hair-boy-to-right" stroke="#1C0A01" stroke-width="0.25" stroke-miterlimit="10" d="M-459.4,379.4
							c0,0,2.5,2.1,5.8,0.5s4.2-6.4,2.2-8.4c-2.1-2.1-3-6.7-0.4-5.9c1.4,0.4,2.4-1.2,2.7-2.9c0.3-2,0.3-5.4,0.3-5.4
							s9.5-0.1,17.4-3.7c-3.7-4.5-8.3-5.7-16.2-4.1s-12.8,5.8-14.4,8.6c-1.6,2.8-2.2,8.7,0.6,13.5c1.8,3.2,3.7,4.6,5.3,5.6
							C-455.1,378-455.2,379.4-459.4,379.4z"/>
					</g>
				</g>
			</g>
		</g>
	</g>
	<g>
		<g>
			<polygon fill="#A5937F" points="-437.6,429 -442.8,402.5 -411.5,402.5 -416.5,429 			"/>
			<path d="M-411.8,402.6l-5,26.3h-20.8l-5.1-26.3H-411.8 M-411.4,402.4h-0.3h-30.9h-0.3l0.1,0.3l5.1,26.3v0.2h0.2h20.8h0.2V429
				l5-26.3L-411.4,402.4L-411.4,402.4z"/>
		</g>
		<polygon fill="#E0D1BE" points="-435.8,402.6 -442.5,402.6 -437.4,428.9 -433.2,428.9 		"/>
		<polygon fill="#48372A" points="-422.8,428.9 -416.6,428.9 -411.6,402.6 -421,402.6 		"/>
		<line fill="none" stroke="#000000" stroke-width="0.25" stroke-miterlimit="10" x1="-441.9" y1="406.1" x2="-412.4" y2="406.1"/>
		<line fill="none" stroke="#000000" stroke-width="0.25" stroke-miterlimit="10" x1="-441.2" y1="410.4" x2="-412.9" y2="410.4"/>
		<line fill="none" stroke="#000000" stroke-width="0.25" stroke-miterlimit="10" x1="-440.6" y1="414.5" x2="-413.6" y2="414.5"/>
		<line fill="none" stroke="#000000" stroke-width="0.25" stroke-miterlimit="10" x1="-439.6" y1="418.6" x2="-414.6" y2="418.6"/>
		<line fill="none" stroke="#000000" stroke-width="0.25" stroke-miterlimit="10" x1="-438.9" y1="422.6" x2="-415.2" y2="422.6"/>
		<line fill="none" stroke="#000000" stroke-width="0.25" stroke-miterlimit="10" x1="-437.9" y1="426.9" x2="-416.1" y2="426.9"/>
	</g>
	<g id="boy-to-left-hands">
		<path id="baloon-skin-boy-to-left-skin" fill="#FFB685" stroke="#000000" stroke-width="0.25" stroke-miterlimit="10" d="
			M-414.2,388.6c0,0-4.7,9.8-6.6,12.9c-1.9,3-4.3,3.3-5.2,3.1c-0.9-0.2-1.6-0.9-1.6-1.7c0-0.8,1.3-1.7,3.2-1.8c2,0,1.3-1.2,0.2-1.1
			s-1.8-0.6-0.7-1.1c1.2-0.5,2.7,0.5,3.8-1c1.1-1.4,2.8-7.4,3.3-8.8C-416.6,386.1-414.2,388.6-414.2,388.6z"/>
		<path fill="#FFFFFF" stroke="#000000" stroke-width="0.25" stroke-miterlimit="10" d="M-411.8,387.1c-1.2,3-7.6,11.9-7.6,11.9
			s-0.9-0.3-1.8-1.1c1.6-4.4,1.9-10.5,3-13.4c1.3-3.2,4.1-4.3,5.8-3.2C-410.8,382.5-410.6,384.1-411.8,387.1z"/>
	</g>
	<g id="boy-to-right-hands">
		<path id="baloon-skin-boy-to-right-hand" fill="#FFB685" stroke="#000000" stroke-width="0.25" stroke-miterlimit="10" d="
			M-436.1,389.4c0.5,1.3,2.3,7.4,3.3,8.8c1.1,1.5,2.6,0.5,3.8,1c1.2,0.5,0.4,1.2-0.7,1.1c-1.2-0.1-1.8,1.1,0.2,1.1s3.2,0.9,3.2,1.8
			c0,0.8-0.8,1.5-1.6,1.7c-0.8,0.2-3.3-0.1-5.2-3.1c-1.9-3-6.6-12.9-6.6-12.9S-437.2,386.4-436.1,389.4z"/>
		<path fill="#FFFFFF" stroke="#000000" stroke-width="0.25" stroke-miterlimit="10" d="M-441.6,381.7c1.8-1.2,4.5,0,5.8,3.2
			c1.1,2.9,1.4,8.9,3,13.4c-0.8,0.7-1.8,1.1-1.8,1.1s-6.4-8.9-7.6-11.9C-443.3,384.4-443.1,382.7-441.6,381.7z"/>
	</g>
</g>
</svg>
