<?xml version="1.0" encoding="utf-8"?>
<!-- Generator: Adobe Illustrator 18.1.1, SVG Export Plug-In . SVG Version: 6.00 Build 0)  -->
<svg version="1.1" id="b-g" xmlns="http://www.w3.org/2000/svg" xmlns:xlink="http://www.w3.org/1999/xlink" x="0px" y="0px"
	 width="83.8px" height="88.8px" viewBox="-469 340.2 83.8 88.8" enable-background="new -469 340.2 83.8 88.8"
	 xml:space="preserve">
<g>
	<g>
		<path fill="#FF85C9" stroke="#000000" stroke-width="0.25" stroke-miterlimit="10" d="M-416,404.1c8,0,30.8-27.2,30.8-40.3
			c0-13.1-10.6-23.8-23.7-23.8c-7.3,0-13.8,3.3-18.1,8.4c-4.4-5.1-10.9-8.4-18.1-8.4c-13.2,0-23.8,10.6-23.8,23.8
			c0,13.2,22.9,40.3,30.8,40.3H-416z"/>
		<path fill="#FF459E" d="M-417.2,404.1c7.2,0,27.7-24.4,27.7-36.2c0-11.8-9.5-21.4-21.3-21.4c-6.6,0-12.4,3-16.2,7.5
			c-4-4.6-9.8-7.5-16.2-7.5c-11.9,0-21.4,9.5-21.4,21.4s20.6,36.2,27.7,36.2H-417.2z"/>
		<path fill="#FF85C9" d="M-418.9,404.1c5.9,0,22.8-20.1,22.8-29.8s-7.8-17.6-17.5-17.6c-5.4,0-10.2,2.4-13.4,6.2
			c-3.3-3.8-8.1-6.2-13.4-6.2c-9.8,0-17.6,7.8-17.6,17.6c0,9.8,16.9,29.8,22.8,29.8H-418.9z"/>
	</g>
	<g id="boy-to-right">
		<g>
			<g>
				<g>
					<defs>

							<rect id="boy-girl-SVGID_1_" x="-459.8" y="348.3" transform="matrix(0.9877 -0.1564 0.1564 0.9877 -64.5999 -64.4174)" width="36.4" height="60"/>
					</defs>
					<clipPath id="boy-girl-SVGID_2_">
						<use xlink:href="#boy-girl-SVGID_1_"  overflow="visible"/>
					</clipPath>
					<g clip-path="url(#boy-girl-SVGID_2_)">

							<rect x="-443.1" y="376.1" transform="matrix(0.9877 -0.1564 0.1564 0.9877 -64.5917 -64.3354)" fill="#FFFFFF" stroke="#000000" stroke-width="0.25" stroke-miterlimit="10" width="3.9" height="4.4"/>
						<path id="baloon-skin-boy-to-right-head" fill="#FFB685" stroke="#000000" stroke-width="0.25" stroke-miterlimit="10" d="
							M-425.8,362.6c-0.4-2.1-2.5-2-3-4.3c-1.9-8.8-9.7-10.7-16.8-9.6c-9.7,1.5-16.6,9.3-15.3,17.3c1.3,8,10.1,13.1,19.8,11.7
							C-432.2,376.3-424.6,368.2-425.8,362.6z"/>
						<g>
							<path d="M-432.8,369.8c2.2,1.6,4,1.3,4.1,1.3s0.1,0,0.2,0c-0.2,0.3-0.6,0.7-0.9,1.1c-0.9-0.1-2.4-0.3-4-1.5
								c-0.2-0.2-0.3-0.5-0.1-0.7C-433.4,369.6-433,369.6-432.8,369.8z"/>
							<circle cx="-438.3" cy="364" r="1"/>
							<path fill="none" stroke="#000000" stroke-linecap="round" stroke-miterlimit="10" d="M-450.6,366c-0.1,0.5-0.1,1.3,0.2,2.2"
								/>
						</g>
						<path id="baloon-hair-boy-to-right" fill="#1C0A01" stroke="#1C0A01" stroke-width="0.25" stroke-miterlimit="10" d="
							M-458.4,378.2c0,0,2.5,2.1,5.8,0.7s4.4-6.3,2.5-8.3c-2.1-2.2-2.8-6.8-0.2-5.9c1.4,0.5,2.5-1.1,2.8-2.8c0.4-2,0.5-5.3,0.5-5.3
							s9.5,0.2,17.5-3.1c-3.6-4.7-8-6-16-4.7s-13,5.4-14.7,8.1s-2.5,8.6,0.1,13.5c1.7,3.3,3.6,4.7,5.1,5.8
							C-454.1,376.9-454.3,378.3-458.4,378.2z"/>
						<path fill="#FFFFFF" stroke="#000000" stroke-width="0.25" stroke-miterlimit="10" d="M-430.8,401c0.1-3,0.2-5.4,0-7
							c-0.5-6.9-5-16-9.5-15.3c-4.9,0.8-2.9,11.7-2.4,16c0.2,1.2,0.6,4.3,1.3,8L-430.8,401z"/>
						<g>
							<path fill="none" stroke="#000000" stroke-miterlimit="10" d="M-449.1,362.4c2.9,0.2,9.6,0.4,23.3-2.3"/>
							<path fill="none" stroke="#000000" stroke-linecap="round" stroke-miterlimit="10" d="M-444.6,362.5c0.9,2.6,3.4,4.8,6.6,4.4
								s5.3-3.1,5.6-5.6"/>
						</g>
						<path fill="#679B91" stroke="#000000" stroke-width="0.25" stroke-miterlimit="10" d="M-441.6,401.7c1.6,9.7,3.4,21,5.5,24.5
							c1.5,2.3,4.8-16.2,5.3-26.1L-441.6,401.7z"/>
						<polygon fill="#679B91" stroke="#000000" stroke-width="0.25" stroke-miterlimit="10" points="-438,378.2 -435.2,379.6
							-433.1,383.7 -429.8,397.2 -434.4,394.6 -435.3,383.3 -438.2,380.7 						"/>
					</g>
				</g>
			</g>
		</g>
	</g>
	<g id="girl-to-left">
		<g id="skin-girl-to-left-head">

				<rect id="baloon-skin-girl-to-left-neck" x="-414.9" y="377.3" transform="matrix(0.9703 0.2419 -0.2419 0.9703 79.51 111.1953)" fill="#FFB685" stroke="#000000" stroke-width="0.25" stroke-miterlimit="10" width="3.7" height="4.2"/>
			<path id="baloon-skin-girl-to-left-head" fill="#FFB685" stroke="#000000" stroke-width="0.25" stroke-miterlimit="10" d="
				M-425.8,362.5c0.6-1.9,2.3-1.7,2.9-3.8c2.4-8.2,9-9.5,14.8-8.1c7.9,2,12.7,9.5,10.8,16.9c-1.8,7.4-9.6,11.7-17.5,9.9
				C-421.8,375.8-427.2,367.8-425.8,362.5z"/>
		</g>
		<path fill="#99026B" stroke="#000000" stroke-width="0.25" stroke-miterlimit="10" d="M-410.8,396.1c1.7-7,3.1-14.9-1.7-16.1
			c-8.6-2.2-14,4.8-15.8,11.7l0,0l-3.5,13.9l17.5,4.4L-410.8,396.1L-410.8,396.1z"/>
		<path fill="#470031" d="M-410.8,396.1c1.7-6.7,2.9-14.1-1-15.9c1.7,3.1,0.6,9.2-0.8,14.8l0,0l-3.6,14.5l1.9,0.5L-410.8,396.1
			L-410.8,396.1z"/>
		<path fill="#FF11FF" stroke="#000000" stroke-width="0.25" stroke-miterlimit="10" d="M-425.9,392.4c1.7-6.6,6.6-13.1,14.3-12.1
			c-0.3-0.2-0.5-0.2-0.8-0.3c-8.6-2.2-14,4.8-15.8,11.7l0,0l-3.5,13.9l2.3,0.6L-425.9,392.4L-425.9,392.4z"/>
		<path id="baloon-hair-girl-to-left" stroke="#000000" stroke-width="0.25" stroke-miterlimit="10" d="M-425.3,355.8
			c0,0,2.7,2.9,10.4-1.1c0.5,3.1,3,7.8,7,9s0.1,5.4-1,6.8c-1.2,1.5-5.7,12-3.1,18s4.8,8.2,8.6,9.2c3.9,1,4.8-2.1,4.8-2.1
			s-0.9,1.5-4.6,0.6s-3.8-4.6-3.2-7.1s1.6-5.7,9-12c5.1-4.5,7.1-13.4,3.2-18.9c-4.2-5.4-8.2-7.3-15.2-8.6
			C-417.3,347.9-423.6,353.2-425.3,355.8z"/>
		<path opacity="0.85" fill="#5B3E49" enable-background="new    " d="M-407.3,371.2c-5,7.1-5.4,13.3-4.9,17.1
			c0.5,1.3,1,2.3,1.6,3.3c-3.6-11.3,4.1-15.1,9.1-23.4c4.7-7.7,1.1-14.5-3.3-17.8c-0.5-0.2-1-0.4-1.5-0.5
			C-404.4,352.9-400,361.2-407.3,371.2z"/>
		<path opacity="0.85" fill="#5B3E49" enable-background="new    " d="M-425.2,355.6c0,0,1.5,1.6,5.4,0.8l0,0
			c2.7-5.4,7.1-6.9,10.3-7.2C-417.4,348-423.6,353.2-425.2,355.6z"/>
		<path opacity="0.85" fill="#5B3E49" enable-background="new    " d="M-408.9,352.2c0.8-1,1.3-1.8,1.6-2.5c-0.6-0.1-1-0.3-1.6-0.4
			c-1.7,0.9-4,3.9-3.7,7.7c0.4,4.3,3.1,5.4,4.8,6.4C-411.9,360.8-410.9,355.4-408.9,352.2z"/>
		<path d="M-419.8,370c-2.1,1.2-3.8,0.9-3.9,0.9s-0.1,0-0.2,0c0.2,0.4,0.5,0.8,0.8,1c0.8,0,2.2-0.2,3.9-1.1c0.2-0.1,0.3-0.4,0.2-0.7
			C-419.3,369.8-419.5,369.9-419.8,370z"/>
		<circle cx="-415.8" cy="364.8" r="0.9"/>
		<path fill="none" stroke="#000000" stroke-linecap="round" stroke-miterlimit="10" d="M-407.6,365.5c0.1,0.5,0,1.2-0.4,2"/>
	</g>
	<g>
		<g>
			<polygon fill="#A5937F" points="-437.6,429 -442.8,402.5 -411.5,402.5 -416.5,429 			"/>
			<path d="M-411.8,402.6l-5,26.3h-20.8l-5.1-26.3H-411.8 M-411.4,402.4h-0.3h-30.9h-0.3l0.1,0.3l5.1,26.3v0.2h0.2h20.8h0.2V429
				l5-26.3L-411.4,402.4L-411.4,402.4z"/>
		</g>
		<polygon fill="#E0D1BE" points="-435.8,402.6 -442.5,402.6 -437.4,428.9 -433.3,428.9 		"/>
		<polygon fill="#48372A" points="-422.8,428.9 -416.6,428.9 -411.6,402.6 -421,402.6 		"/>
		<line fill="none" stroke="#000000" stroke-width="0.25" stroke-miterlimit="10" x1="-441.9" y1="406.1" x2="-412.4" y2="406.1"/>
		<line fill="none" stroke="#000000" stroke-width="0.25" stroke-miterlimit="10" x1="-441.2" y1="410.4" x2="-412.9" y2="410.4"/>
		<line fill="none" stroke="#000000" stroke-width="0.25" stroke-miterlimit="10" x1="-440.6" y1="414.5" x2="-413.6" y2="414.5"/>
		<line fill="none" stroke="#000000" stroke-width="0.25" stroke-miterlimit="10" x1="-439.6" y1="418.6" x2="-414.6" y2="418.6"/>
		<line fill="none" stroke="#000000" stroke-width="0.25" stroke-miterlimit="10" x1="-438.9" y1="422.6" x2="-415.3" y2="422.6"/>
		<line fill="none" stroke="#000000" stroke-width="0.25" stroke-miterlimit="10" x1="-437.9" y1="426.9" x2="-416.1" y2="426.9"/>
	</g>
	<g id="girl-to-left-hands">
		<path id="baloon-skin-girl-to-left-hand" fill="#FFB685" stroke="#000000" stroke-width="0.25" stroke-miterlimit="10" d="
			M-418.8,390c-0.6,1.2-2.7,6.7-3.8,8c-1.1,1.3-2.5,0.3-3.6,0.7c-1.1,0.4-0.5,1.1,0.6,1.1c1,0,1.6,1.2-0.2,1
			c-1.8-0.2-3.2,0.6-3.3,1.3c-0.1,0.7,0.6,1.5,1.4,1.8c0.9,0.3,3.2,0.3,5.2-2.5s7.2-11.6,7.2-11.6S-417.6,387.1-418.8,390z"/>
		<path fill="#4F023F" stroke="#000000" stroke-width="0.25" stroke-miterlimit="10" d="M-420.9,389.2l6.4,3.3c0,0,1.2-3.4,1.7-4.8
			s0.6-3.7-1.3-4.3C-416,382.9-418.2,383.5-420.9,389.2z"/>
	</g>
	<g id="boy-to-right-hands_1_">
		<path id="baloon-skin-boy-to-right-hand" fill="#FFB685" stroke="#000000" stroke-width="0.25" stroke-miterlimit="10" d="
			M-435.6,388.9c0.5,1.3,2,7.4,3,8.9s2.6,0.6,3.7,1.2s0.4,1.3-0.7,1.1c-1.2-0.2-1.8,1,0.1,1.1s3.2,1.1,3.2,1.9s-0.8,1.5-1.7,1.7
			c-0.9,0.2-3.3-0.2-5.1-3.3c-1.8-3.1-6.2-13.1-6.2-13.1S-436.8,385.8-435.6,388.9z"/>
		<path fill="#FFFFFF" stroke="#000000" stroke-width="0.25" stroke-miterlimit="10" d="M-440.9,381c1.8-1.1,4.5,0.2,5.7,3.4
			c1,2.9,1.1,9,2.6,13.5c-0.9,0.7-1.8,1-1.8,1s-6.1-9.1-7.2-12.2C-442.8,383.6-442.4,381.9-440.9,381z"/>
	</g>
</g>
</svg>
