<?xml version="1.0" encoding="utf-8"?>
<!-- Generator: Adobe Illustrator 18.1.1, SVG Export Plug-In . SVG Version: 6.00 Build 0)  -->
<svg version="1.1" id="boy-to-left-top" xmlns="http://www.w3.org/2000/svg" xmlns:xlink="http://www.w3.org/1999/xlink" x="0px"
	 y="0px" width="36.4px" height="60px" viewBox="-493 355 36.4 60" enable-background="new -493 355 36.4 60" xml:space="preserve">
<g>
	<g>
		<g>
			<g>
				<defs>
					<rect id="boy-to-left-SVGID_1_" x="-493" y="355" width="36.4" height="60"/>
				</defs>
				<clipPath id="boy-to-left-SVGID_2_">
					<use xlink:href="#boy-to-left-SVGID_1_"  overflow="visible"/>
				</clipPath>
				<g clip-path="url(#boy-to-left-SVGID_2_)">

						<rect x="-477.1" y="382.9" fill="#FFFFFF" stroke="#000000" stroke-width="0.25" stroke-miterlimit="10" width="3.9" height="4.4"/>
					<path id="skin-boy-to-left-head" fill="#FFB685" stroke="#000000" stroke-width="0.25" stroke-miterlimit="10" d="M-492.8,372
						c0.1-2.1,2.2-2.4,2.3-4.7c0.5-9,7.9-12.1,15.1-12.1c9.8,0,17.7,6.6,17.7,14.6s-7.9,14.5-17.7,14.6
						C-484.1,384.6-493,377.8-492.8,372z"/>
					<g>
						<path d="M-484.6,378.1c-1.9,1.8-3.8,1.9-3.8,1.9c-0.1,0-0.1,0-0.2,0c0.3,0.3,0.7,0.6,1.1,0.9c0.9-0.2,2.3-0.7,3.7-2.1
							c0.2-0.2,0.2-0.5,0-0.7C-484.1,377.8-484.4,377.8-484.6,378.1z"/>
						<circle cx="-480" cy="371.5" r="1"/>
						<path fill="none" stroke="#000000" stroke-linecap="round" stroke-miterlimit="10" d="M-467.6,371.5c0.2,0.5,0.3,1.3,0.1,2.2"
							/>
					</g>
					<path fill="#FFFFFF" stroke="#000000" stroke-width="0.25" stroke-miterlimit="10" d="M-481.7,409.2c-0.6-2.9-1-5.3-1.1-6.9
						c-0.6-6.9,2.4-16.6,7-16.6c5,0,4.8,11.1,4.9,15.4c0,1.2,0.1,4.3,0,8.1C-470.9,409.2-481.7,409.2-481.7,409.2z"/>
					<g>
						<path fill="none" stroke="#000000" stroke-miterlimit="10" d="M-469.6,368.2c-2.8,0.6-9.4,1.9-23.4,1.4"/>
						<path fill="none" stroke="#000000" stroke-linecap="round" stroke-miterlimit="10" d="M-474.1,369c-0.5,2.7-2.6,5.3-5.8,5.4
							c-3.2,0.1-5.7-2.2-6.4-4.7"/>
					</g>
					<path id="hair-boy-to-left" fill="#1C0A01" stroke="#1C0A01" stroke-width="0.25" stroke-miterlimit="10" d="M-457.9,382.3
						c0,0-2.1,2.5-5.6,1.6s-5.3-5.5-3.8-7.8c1.7-2.5,1.7-7.1-0.8-5.9c-1.3,0.7-2.6-0.7-3.2-2.3c-0.7-1.9-1.3-5.2-1.3-5.2
						s-9.3,1.6-17.7-0.4c2.8-5.2,7-7.2,15.1-7.2s13.8,3.5,15.8,5.9s3.8,8.1,2,13.4c-1.2,3.5-2.8,5.2-4.1,6.5
						C-462.5,381.7-462,383.1-457.9,382.3z"/>
					<path fill="#679B91" stroke="#000000" stroke-width="0.25" stroke-miterlimit="10" d="M-471,408.2c-0.1,9.8,0,21.4-1.6,25.1
						c-1.1,2.5-7.3-15.2-9.3-25L-471,408.2z"/>
					<polygon fill="#679B91" stroke="#000000" stroke-width="0.25" stroke-miterlimit="10" points="-478.2,385.5 -480.7,387.3
						-482.2,391.7 -483.2,405.6 -479.1,402.3 -480.1,391 -477.5,388 					"/>
				</g>
			</g>
		</g>
	</g>
</g>
</svg>
