<?xml version="1.0" encoding="utf-8"?>
<!-- Generator: Adobe Illustrator 18.1.1, SVG Export Plug-In . SVG Version: 6.00 Build 0)  -->
<svg version="1.1" id="boy-to-right-top" xmlns="http://www.w3.org/2000/svg" xmlns:xlink="http://www.w3.org/1999/xlink" x="0px"
	 y="0px" width="36.4px" height="60px" viewBox="-493 355 36.4 60" enable-background="new -493 355 36.4 60" xml:space="preserve">
<g>
	<g>
		<g>
			<defs>
				<rect id="boy-to-right-SVGID_1_" x="-493" y="355" width="36.4" height="60"/>
			</defs>
			<clipPath id="boy-to-right-SVGID_2_">
				<use xlink:href="#boy-to-right-SVGID_1_"  overflow="visible"/>
			</clipPath>
			<g clip-path="url(#boy-to-right-SVGID_2_)">

					<rect x="-476.4" y="382.9" fill="#FFFFFF" stroke="#000000" stroke-width="0.25" stroke-miterlimit="10" width="3.9" height="4.4"/>
				<path id="skin-boy-to-right-head" fill="#FFB685" stroke="#000000" stroke-width="0.25" stroke-miterlimit="10" d="M-456.9,372
					c-0.1-2.1-2.2-2.4-2.3-4.7c-0.5-9-7.9-12.1-15.1-12.1c-9.8,0-17.8,6.6-17.8,14.7s7.9,14.5,17.7,14.6
					C-465.5,384.6-456.7,377.8-456.9,372z"/>
				<g>
					<path d="M-465,378.1c1.9,1.9,3.7,1.9,3.8,1.9s0.1,0,0.2,0c-0.3,0.3-0.7,0.6-1.1,0.9c-0.9-0.2-2.3-0.7-3.7-2.1
						c-0.2-0.2-0.2-0.5,0-0.7C-465.6,377.8-465.2,377.8-465,378.1z"/>
					<circle cx="-469.6" cy="371.5" r="1"/>
					<path fill="none" stroke="#000000" stroke-linecap="round" stroke-miterlimit="10" d="M-482,371.5c-0.2,0.5-0.3,1.3-0.1,2.2"/>
				</g>
				<path id="hair-boy-to-right" fill="#1C0A01" stroke="#1C0A01" stroke-width="0.25" stroke-miterlimit="10" d="M-491.7,382.3
					c0,0,2.1,2.5,5.6,1.6s5.3-5.5,3.8-7.8c-1.7-2.5-1.7-7.2,0.7-5.9c1.3,0.7,2.6-0.7,3.2-2.3c0.7-1.9,1.3-5.2,1.3-5.2
					s9.3,1.7,17.8-0.3c-2.8-5.2-7-7.2-15.1-7.2s-13.7,3.3-15.8,5.7s-3.8,8.1-2,13.4c1.2,3.5,2.8,5.2,4.1,6.5
					C-487.2,381.7-487.6,383.1-491.7,382.3z"/>
				<path fill="#FFFFFF" stroke="#000000" stroke-width="0.25" stroke-miterlimit="10" d="M-467.9,409.2c0.6-2.9,1-5.3,1.1-6.9
					c0.6-6.9-2.4-16.6-7-16.6c-5,0-4.7,11.1-4.9,15.4c0,1.2-0.1,4.3,0,8.1C-478.7,409.2-467.9,409.2-467.9,409.2z"/>
				<g>
					<path fill="none" stroke="#000000" stroke-miterlimit="10" d="M-480,368.2c2.8,0.6,9.4,1.9,23.4,1.4"/>
					<path fill="none" stroke="#000000" stroke-linecap="round" stroke-miterlimit="10" d="M-475.6,369c0.5,2.7,2.6,5.3,5.8,5.4
						c3.2,0.1,5.7-2.2,6.4-4.7"/>
				</g>
				<path fill="#679B91" stroke="#000000" stroke-width="0.25" stroke-miterlimit="10" d="M-478.7,408.2c0.1,9.8,0.1,21.3,1.6,25.1
					c1.1,2.5,7.3-15.2,9.3-25L-478.7,408.2z"/>
				<polygon fill="#679B91" stroke="#000000" stroke-width="0.25" stroke-miterlimit="10" points="-471.5,385.5 -469,387.3
					-467.5,391.7 -466.4,405.6 -470.5,402.3 -469.6,391 -472.1,388 				"/>
			</g>
		</g>
	</g>
</g>
</svg>
