<?xml version="1.0" encoding="utf-8"?>
<!-- Generator: Adobe Illustrator 18.1.1, SVG Export Plug-In . SVG Version: 6.00 Build 0)  -->
<svg version="1.1" id="boy-to-left-legs" xmlns="http://www.w3.org/2000/svg" xmlns:xlink="http://www.w3.org/1999/xlink" x="0px"
	 y="0px" width="13px" height="26.2px" viewBox="-505 371.8 13 26.2" enable-background="new -505 371.8 13 26.2"
	 xml:space="preserve">
<g>
	<g>
		<path stroke="#000000" stroke-width="0.25" stroke-miterlimit="10" d="M-499.6,379.8c0.3,3.5,2.6,10.6,2.6,11.6s-0.3,2.1-2.4,1.9
			c-1.6-0.2-4.1,0.2-5.3,2.3c-0.6,1,0.2,2.3,1.3,2.3h7.5c1.3,0,2.3,0.4,2.3-2s-0.1-10.4-1.6-14.6s-0.2-6.6-2.2-6.6
			S-499.9,376.9-499.6,379.8z"/>
	</g>
	<path fill="#679B91" stroke="#000000" stroke-width="0.25" stroke-miterlimit="10" d="M-492.1,371.9c-0.1,9.8-0.1,21.3-1.6,25.1
		c-1.1,2.5-7.4-15.2-9.3-25L-492.1,371.9z"/>
</g>
</svg>
