<?xml version="1.0" encoding="utf-8"?>
<!-- Generator: Adobe Illustrator 18.1.1, SVG Export Plug-In . SVG Version: 6.00 Build 0)  -->
<svg version="1.1" id="boy-to-right-hands" xmlns="http://www.w3.org/2000/svg" xmlns:xlink="http://www.w3.org/1999/xlink" x="0px"
	 y="0px" width="11.9px" height="26.3px" viewBox="-505 371.7 11.9 26.3" enable-background="new -505 371.7 11.9 26.3"
	 xml:space="preserve">
<g>
	<path id="skin-boy-to-right-hands" fill="#FFB685" stroke="#000000" stroke-width="0.25" stroke-miterlimit="10" d="M-499.4,380.8
		c0.2,1.4,0.4,7.7,1.1,9.3c0.7,1.7,2.4,1.1,3.4,1.9s0.1,1.3-0.9,0.9c-1.1-0.4-2,0.6-0.1,1.1s2.9,1.7,2.7,2.5c-0.2,0.8-1.1,1.3-2,1.3
		s-3.2-0.9-4.3-4.3c-1.1-3.4-3.3-14.1-3.3-14.1S-499.8,377.6-499.4,380.8z"/>
	<path fill="#FFFFFF" stroke="#000000" stroke-width="0.25" stroke-miterlimit="10" d="M-502.9,372c2-0.7,4.4,1.1,4.9,4.5
		c0.4,3.1-0.8,9-0.3,13.7c-1,0.5-2,0.6-2,0.6s-4.1-10.2-4.5-13.4C-505.2,374.2-504.6,372.6-502.9,372z"/>
</g>
</svg>
