<?xml version="1.0" encoding="utf-8"?>
<!-- Generator: Adobe Illustrator 18.1.1, SVG Export Plug-In . SVG Version: 6.00 Build 0)  -->
<svg version="1.1" id="boy-to-left-hands" xmlns="http://www.w3.org/2000/svg" xmlns:xlink="http://www.w3.org/1999/xlink" x="0px"
	 y="0px" width="11.9px" height="26.3px" viewBox="-505 371.7 11.9 26.3" enable-background="new -505 371.7 11.9 26.3"
	 xml:space="preserve">
<g>
	<path id="skin-boy-to-left-hands" fill="#FFB685" stroke="#000000" stroke-width="0.25" stroke-miterlimit="10" d="M-498.7,380.8
		c-0.2,1.4-0.4,7.7-1.1,9.3c-0.7,1.7-2.4,1.1-3.4,1.9s-0.1,1.3,0.9,0.9c1.1-0.4,2,0.6,0.1,1.1c-1.8,0.5-2.8,1.8-2.7,2.6
		c0.1,0.8,1.1,1.3,2,1.3s3.2-0.9,4.3-4.3s3.3-14.2,3.3-14.2S-498.3,377.6-498.7,380.8z"/>
	<path fill="#FFFFFF" stroke="#000000" stroke-width="0.25" stroke-miterlimit="10" d="M-495.2,372c-2-0.8-4.4,1.1-4.8,4.5
		c-0.4,3.1,0.8,9,0.3,13.7c1,0.5,2,0.6,2,0.6s4-10.2,4.4-13.4C-492.9,374.2-493.5,372.6-495.2,372z"/>
</g>
</svg>
