<?xml version="1.0" encoding="utf-8"?>
<!-- Generator: Adobe Illustrator 18.1.1, SVG Export Plug-In . SVG Version: 6.00 Build 0)  -->
<svg version="1.1" id="g-b" xmlns="http://www.w3.org/2000/svg" xmlns:xlink="http://www.w3.org/1999/xlink" x="0px" y="0px"
	 width="83.8px" height="88.8px" viewBox="-469 340.2 83.8 88.8" enable-background="new -469 340.2 83.8 88.8"
	 xml:space="preserve">
<g>
	<g>
		<path fill="#FF85C9" stroke="#000000" stroke-width="0.25" stroke-miterlimit="10" d="M-416,404.1c8,0,30.8-27.2,30.8-40.3
			c0-13.1-10.6-23.8-23.7-23.8c-7.3,0-13.8,3.3-18.1,8.4c-4.4-5.1-10.9-8.4-18.1-8.4c-13.2,0-23.8,10.6-23.8,23.8
			c0,13.2,22.9,40.3,30.8,40.3H-416z"/>
		<path fill="#FF459E" d="M-417.2,404.1c7.2,0,27.7-24.4,27.7-36.2c0-11.8-9.5-21.4-21.3-21.4c-6.6,0-12.4,3-16.2,7.5
			c-4-4.6-9.8-7.5-16.2-7.5c-11.9,0-21.4,9.5-21.4,21.4s20.6,36.2,27.7,36.2H-417.2z"/>
		<path fill="#FF85C9" d="M-418.9,404.1c5.9,0,22.8-20.1,22.8-29.8s-7.8-17.6-17.5-17.6c-5.4,0-10.2,2.4-13.4,6.2
			c-3.3-3.8-8.1-6.2-13.4-6.2c-9.8,0-17.6,7.8-17.6,17.6c0,9.8,16.9,29.8,22.8,29.8H-418.9z"/>
	</g>
	<g id="boy-to-left">
		<g>
			<g>
				<defs>

						<rect id="SVGID_1_" x="-431" y="348.2" transform="matrix(0.9877 0.1564 -0.1564 0.9877 54.0735 69.2234)" width="36.4" height="60"/>
				</defs>
				<clipPath id="SVGID_2_">
					<use xlink:href="#SVGID_1_"  overflow="visible"/>
				</clipPath>
				<g clip-path="url(#SVGID_2_)">

						<rect x="-415.1" y="376" transform="matrix(0.9877 0.1564 -0.1564 0.9877 54.0686 69.2777)" fill="#FFFFFF" stroke="#000000" stroke-width="0.25" stroke-miterlimit="10" width="3.9" height="4.4"/>
					<path id="baloon-skin-boy-to-left" fill="#FFB685" stroke="#000000" stroke-width="0.25" stroke-miterlimit="10" d="
						M-413.1,377.6c9.7,1.5,18.5-3.6,19.7-11.6s-5.6-15.8-15.3-17.3c-7.1-1.1-14.9,0.8-16.8,9.6c-0.5,2.3-2.6,2.2-3,4.3
						C-429.6,368.2-421.9,376.4-413.1,377.6z"/>
					<g>
						<path d="M-420.6,370.1c0.2,0.2,0.1,0.5-0.1,0.7c-1.6,1.2-3.1,1.4-4,1.5c-0.3-0.4-0.7-0.7-0.9-1.1c0.1,0,0.1,0,0.2,0
							s1.9,0.3,4.1-1.3C-421.2,369.6-420.8,369.6-420.6,370.1z"/>
						<circle cx="-415.9" cy="364.1" r="1"/>
						<path fill="none" stroke="#000000" stroke-linecap="round" stroke-miterlimit="10" d="M-403.8,368.2c0.3-0.9,0.4-1.7,0.2-2.2"
							/>
					</g>
					<path fill="#FFFFFF" stroke="#000000" stroke-width="0.25" stroke-miterlimit="10" d="M-412.8,402.8c0.7-3.7,1.1-6.8,1.3-8
						c0.5-4.3,2.5-15.2-2.4-16c-4.5-0.7-9,8.4-9.5,15.3c-0.2,1.6-0.1,4,0,7C-423.4,401.1-412.8,402.8-412.8,402.8z"/>
					<g>
						<path fill="none" stroke="#000000" stroke-miterlimit="10" d="M-428.4,360.1c13.7,2.7,20.5,2.4,23.3,2.3"/>
						<path fill="none" stroke="#000000" stroke-linecap="round" stroke-miterlimit="10" d="M-421.8,361.4c0.3,2.6,2.4,5.2,5.6,5.6
							s5.7-1.8,6.6-4.4"/>
					</g>
					<path fill="#679B91" stroke="#000000" stroke-width="0.25" stroke-miterlimit="10" d="M-423.4,400.1c0.4,10,3.8,28.4,5.3,26.1
						c2.1-3.5,3.9-14.9,5.5-24.5L-423.4,400.1z"/>
					<polygon fill="#679B91" stroke="#000000" stroke-width="0.25" stroke-miterlimit="10" points="-416,380.8 -418.9,383.4
						-419.8,394.6 -424.3,397.2 -421.1,383.8 -418.9,379.6 -416.2,378.2 					"/>
					<path id="baloon-hair-boy-to-left" fill="#1C0A01" stroke="#1C0A01" stroke-width="0.25" stroke-miterlimit="10" d="
						M-399,376.1c1.5-1.1,3.3-2.5,5.1-5.8c2.6-5,1.8-10.8,0.1-13.5c-1.7-2.7-6.7-6.8-14.7-8.1c-8-1.3-12.5,0.1-16,4.7
						c8.1,3.3,17.5,3.1,17.5,3.1s0.1,3.4,0.5,5.3c0.3,1.7,1.4,3.3,2.8,2.8c2.6-0.9,1.8,3.7-0.2,5.9c-1.8,2-0.8,6.9,2.5,8.3
						s5.8-0.7,5.8-0.7C-399.9,378.4-400.1,377-399,376.1z"/>
				</g>
			</g>
		</g>
	</g>
	<g id="girl-to-right">
		<g>

				<rect id="baloon-skin-girl-to-right-neck" x="-443.3" y="377.5" transform="matrix(0.9703 -0.2419 0.2419 0.9703 -104.9347 -95.5214)" fill="#FFB685" stroke="#000000" stroke-width="0.25" stroke-miterlimit="10" width="3.7" height="4.2"/>
			<path id="baloon-skin-girl-to-right-head" fill="#FFB685" stroke="#000000" stroke-width="0.25" stroke-miterlimit="10" d="
				M-439.5,377.4c-7.9,1.9-15.7-2.5-17.5-9.9s3-15,10.8-16.9c5.8-1.5,12.3-0.1,14.8,8.1c0.6,2.1,2.3,1.9,2.9,3.8
				C-426.9,367.8-432.4,375.8-439.5,377.4z"/>
		</g>
		<path fill="#99026B" stroke="#000000" stroke-width="0.25" stroke-miterlimit="10" d="M-443.4,396.1l3.5,13.9l17.5-4.4l-3.5-13.8
			l0,0c-1.8-7-7.2-13.9-15.8-11.7C-446.5,381.1-445.1,389.1-443.4,396.1L-443.4,396.1z"/>
		<path fill="#470031" d="M-443.4,396.1l3.5,13.9l1.9-0.5l-3.6-14.4l0,0c-1.4-5.6-2.5-11.7-0.8-14.8
			C-446.3,382-445,389.4-443.4,396.1L-443.4,396.1z"/>
		<path fill="#FF11FF" stroke="#000000" stroke-width="0.25" stroke-miterlimit="10" d="M-428.2,392.4l3.4,13.7l2.3-0.6l-3.4-13.8
			l0,0c-1.8-7-7.2-13.9-15.8-11.7c-0.3,0.1-0.5,0.1-0.8,0.3C-434.8,379.2-430,385.8-428.2,392.4L-428.2,392.4z"/>
		<path id="baloon-hair-girl-to-right" stroke="#000000" stroke-width="0.25" stroke-miterlimit="10" d="M-444.9,349.5
			c-7,1.3-10.9,3.2-15.2,8.6c-4,5.5-2,14.4,3.2,18.9c7.3,6.3,8.3,9.5,9,12c0.6,2.5,0.5,6.2-3.2,7.1s-4.6-0.6-4.6-0.6s1,3.1,4.8,2.1
			c3.9-1,6.1-3.2,8.6-9.2s-2-16.5-3.1-18c-1.1-1.4-5-5.6-1-6.8s6.6-5.9,7-9c7.7,4.1,10.4,1.1,10.4,1.1
			C-430.6,353.2-436.8,347.9-444.9,349.5z"/>
		<path opacity="0.85" fill="#5B3E49" enable-background="new    " d="M-447.9,350.1c-0.5,0.1-1.1,0.3-1.5,0.5
			c-4.4,3.4-8,10.1-3.3,17.8c5.1,8.3,12.7,12.1,9.1,23.4c0.6-1,1-2,1.6-3.3c0.5-3.8,0.1-10-4.9-17.1
			C-454.1,361.2-449.8,352.9-447.9,350.1z"/>
		<path opacity="0.85" fill="#5B3E49" enable-background="new    " d="M-444.5,349.2c3.2,0.3,7.6,1.8,10.3,7.2l0,0
			c3.9,0.8,5.4-0.8,5.4-0.8C-430.6,353.2-436.8,348-444.5,349.2z"/>
		<path opacity="0.85" fill="#5B3E49" enable-background="new    " d="M-446.3,363.6c1.7-1,4.4-2.1,4.8-6.4c0.3-3.9-2-6.8-3.7-7.7
			c-0.6,0.1-1.1,0.3-1.6,0.4c0.4,0.6,0.9,1.4,1.6,2.5C-443.2,355.4-442.3,360.8-446.3,363.6z"/>
		<path d="M-435.1,370.1c-0.1,0.2-0.1,0.5,0.2,0.7c1.7,0.9,3.1,1.1,3.9,1.1c0.2-0.3,0.6-0.7,0.8-1c-0.1,0-0.1,0-0.2,0
			s-1.9,0.4-3.9-0.9C-434.8,369.9-434.9,369.8-435.1,370.1z"/>
		<circle cx="-438.5" cy="364.8" r="0.9"/>
		<path fill="none" stroke="#000000" stroke-linecap="round" stroke-miterlimit="10" d="M-446.2,367.5c-0.4-0.7-0.5-1.4-0.4-2"/>
	</g>
	<g>
		<g>
			<polygon fill="#A5937F" points="-437.6,429 -442.8,402.5 -411.5,402.5 -416.5,429 			"/>
			<path d="M-411.8,402.6l-5,26.3h-20.8l-5.1-26.3H-411.8 M-411.4,402.4h-0.3h-30.9h-0.3l0.1,0.3l5.1,26.3v0.2h0.2h20.8h0.2V429
				l5-26.3L-411.4,402.4L-411.4,402.4z"/>
		</g>
		<polygon fill="#E0D1BE" points="-435.8,402.6 -442.5,402.6 -437.4,428.9 -433.3,428.9 		"/>
		<polygon fill="#48372A" points="-422.8,428.9 -416.6,428.9 -411.6,402.6 -421,402.6 		"/>
		<line fill="none" stroke="#000000" stroke-width="0.25" stroke-miterlimit="10" x1="-441.9" y1="406.1" x2="-412.4" y2="406.1"/>
		<line fill="none" stroke="#000000" stroke-width="0.25" stroke-miterlimit="10" x1="-441.2" y1="410.4" x2="-412.9" y2="410.4"/>
		<line fill="none" stroke="#000000" stroke-width="0.25" stroke-miterlimit="10" x1="-440.6" y1="414.5" x2="-413.6" y2="414.5"/>
		<line fill="none" stroke="#000000" stroke-width="0.25" stroke-miterlimit="10" x1="-439.6" y1="418.6" x2="-414.6" y2="418.6"/>
		<line fill="none" stroke="#000000" stroke-width="0.25" stroke-miterlimit="10" x1="-438.9" y1="422.6" x2="-415.3" y2="422.6"/>
		<line fill="none" stroke="#000000" stroke-width="0.25" stroke-miterlimit="10" x1="-437.9" y1="426.9" x2="-416.1" y2="426.9"/>
	</g>
	<g id="girl-to-right-hands">
		<path id="baloon-skin-girl-to-right-hand" fill="#FFB685" stroke="#000000" stroke-width="0.25" stroke-miterlimit="10" d="
			M-438.8,389.6c0,0,5.1,8.8,7.2,11.6c2,2.8,4.4,2.8,5.2,2.5c0.9-0.3,1.5-1.1,1.4-1.8c-0.1-0.7-1.5-1.5-3.3-1.3s-1.3-0.9-0.2-1
			c1,0,1.6-0.8,0.6-1.1c-1.1-0.4-2.5,0.7-3.6-0.7c-1.1-1.3-3.2-6.8-3.8-8C-436.6,387.1-438.8,389.6-438.8,389.6z"/>
		<path fill="#4F023F" stroke="#000000" stroke-width="0.25" stroke-miterlimit="10" d="M-440,383.4c-1.9,0.6-1.8,2.8-1.3,4.3
			s1.7,4.8,1.7,4.8l6.4-3.3C-436,383.5-438.1,382.9-440,383.4z"/>
	</g>
	<g id="boy-to-left-hands">
		<path id="baloon-skin-boy-to-left-hand" fill="#FFB685" stroke="#000000" stroke-width="0.25" stroke-miterlimit="10" d="
			M-414.9,388.1c0,0-4.4,10-6.2,13.1c-1.8,3.1-4.2,3.5-5.1,3.3s-1.7-0.9-1.7-1.7c0-0.8,1.2-1.8,3.2-1.9s1.3-1.3,0.1-1.1
			c-1.1,0.2-1.8-0.5-0.7-1.1c1.1-0.6,2.7,0.4,3.7-1.2c1-1.4,2.5-7.5,3-8.9C-417.5,385.8-414.9,388.1-414.9,388.1z"/>
		<path fill="#FFFFFF" stroke="#000000" stroke-width="0.25" stroke-miterlimit="10" d="M-412.5,386.6c-1.1,3-7.2,12.2-7.2,12.2
			s-1-0.3-1.8-1c1.5-4.5,1.5-10.5,2.6-13.5c1.2-3.2,3.9-4.5,5.7-3.4C-411.8,381.9-411.5,383.6-412.5,386.6z"/>
	</g>
</g>
</svg>
