<?xml version="1.0" encoding="utf-8"?>
<!-- Generator: Adobe Illustrator 18.1.1, SVG Export Plug-In . SVG Version: 6.00 Build 0)  -->
<svg version="1.1" id="g-g" xmlns="http://www.w3.org/2000/svg" xmlns:xlink="http://www.w3.org/1999/xlink" x="0px" y="0px"
	 width="83.8px" height="88.8px" viewBox="-469 340.2 83.8 88.8" enable-background="new -469 340.2 83.8 88.8"
	 xml:space="preserve">
<g>
	<g>
		<path fill="#FF85C9" stroke="#000000" stroke-width="0.25" stroke-miterlimit="10" d="M-416,404.3c8,0,30.8-27.2,30.8-40.3
			s-10.6-23.8-23.7-23.8c-7.3,0-13.8,3.3-18.1,8.4c-4.4-5.1-10.9-8.4-18.1-8.4c-13.2,0-23.8,10.6-23.8,23.8s22.9,40.3,30.8,40.3
			H-416z"/>
		<path fill="#FF459E" d="M-417.1,404.3c7.2,0,27.7-24.4,27.7-36.2s-9.5-21.4-21.3-21.4c-6.6,0-12.4,3-16.2,7.5
			c-4-4.6-9.8-7.5-16.2-7.5c-11.9,0-21.4,9.5-21.4,21.4s20.6,36.2,27.7,36.2H-417.1z"/>
		<path fill="#FF85C9" d="M-418.9,404.3c5.9,0,22.8-20.1,22.8-29.8s-7.8-17.6-17.5-17.6c-5.4,0-10.2,2.4-13.4,6.2
			c-3.3-3.8-8.1-6.2-13.4-6.2c-9.8,0-17.6,7.8-17.6,17.6s16.9,29.8,22.8,29.8H-418.9z"/>
	</g>
	<g>
		<g id="girl-to-right">
			<g id="skin-girl-to-right-head">
				
					<rect id="baloon-skin-girl-to-right-neck" x="-442.8" y="379" transform="matrix(0.9781 -0.2079 0.2079 0.9781 -88.8702 -83.3547)" fill="#FFB685" stroke="#000000" stroke-width="0.25" stroke-miterlimit="10" width="3.7" height="4.2"/>
				<path id="baloon-skin-girl-to-right-head" fill="#FFB685" stroke="#000000" stroke-width="0.25" stroke-miterlimit="10" d="
					M-438.8,379.1c-7.9,1.6-15.6-3-17.2-10.5c-1.6-7.4,3.5-14.8,11.4-16.5c5.9-1.2,12.3,0.3,14.5,8.6c0.6,2.1,2.3,2,2.8,3.9
					C-425.9,369.9-431.6,377.6-438.8,379.1z"/>
			</g>
			<path fill="#99026B" stroke="#000000" stroke-width="0.25" stroke-miterlimit="10" d="M-443.3,397.6l3,14l17.6-3.7l-3-14l0,0
				c-1.6-7-6.7-14.1-15.4-12.3C-445.9,382.6-444.8,390.6-443.3,397.6L-443.3,397.6z"/>
			<path fill="#470031" d="M-443.3,397.6l3,14l2-0.4l-3.1-14.6l0,0c-1.2-5.7-2.1-11.8-0.3-14.9
				C-445.8,383.4-444.8,390.9-443.3,397.6L-443.3,397.6z"/>
			<path fill="#FF11FF" stroke="#000000" stroke-width="0.25" stroke-miterlimit="10" d="M-428,394.4l3,13.9l2.3-0.5l-3-14l0,0
				c-1.6-7-6.7-14.1-15.4-12.3c-0.3,0.1-0.5,0.1-0.8,0.3C-434.1,381-429.5,387.7-428,394.4L-428,394.4z"/>
			<path id="baloon-hair-girl-to-righ" stroke="#000000" stroke-width="0.25" stroke-miterlimit="10" d="M-443.2,351
				c-7,1.1-11,2.9-15.5,8.1c-4.2,5.4-2.5,14.3,2.5,19c7.1,6.6,8,9.7,8.5,12.3s0.3,6.2-3.4,7s-4.6-0.8-4.6-0.8s0.9,3.1,4.8,2.3
				s6.2-3,9-8.9s-1.4-16.6-2.5-18.1c-1-1.4-4.8-5.7-0.7-6.8s6.8-5.6,7.3-8.7c7.6,4.3,10.3,1.5,10.3,1.5
				C-429,355.2-435.1,349.7-443.2,351z"/>
			<path opacity="0.85" fill="#5B3E49" enable-background="new    " d="M-446.2,351.4c-0.5,0.1-1.1,0.2-1.5,0.4
				c-4.5,3.2-8.3,9.8-3.9,17.7c4.8,8.5,12.3,12.5,8.3,23.7c0.6-0.9,1.1-2,1.7-3.2c0.6-3.8,0.4-10-4.3-17.3
				C-452.8,362.4-448.1,354.2-446.2,351.4z"/>
			<path opacity="0.85" fill="#5B3E49" enable-background="new    " d="M-442.8,350.8c3.2,0.5,7.5,2.1,10,7.6l0,0
				c3.9,0.9,5.4-0.6,5.4-0.6C-429,355.2-435,349.7-442.8,350.8z"/>
			<path opacity="0.85" fill="#5B3E49" enable-background="new    " d="M-445.1,365c1.7-1,4.5-2,5-6.3c0.4-3.9-1.8-6.9-3.4-7.9
				c-0.6,0.1-1.1,0.2-1.7,0.4c0.3,0.6,0.8,1.5,1.6,2.5C-441.8,356.9-441,362.4-445.1,365z"/>
			<path d="M-434.1,371.8c-0.2,0.2-0.1,0.5,0.1,0.7c1.6,1,3,1.2,3.8,1.2c0.3-0.3,0.6-0.6,0.8-1c-0.1,0-0.1,0-0.2,0s-1.9,0.3-3.9-1
				C-433.8,371.6-433.9,371.6-434.1,371.8z"/>
			<circle cx="-437.3" cy="366.5" r="0.9"/>
			<path fill="none" stroke="#000000" stroke-linecap="round" stroke-miterlimit="10" d="M-445.1,368.9c-0.4-0.7-0.4-1.4-0.3-2"/>
		</g>
		<g id="girl-to-left_1_">
			<g id="skin-girl-to-left-head">
				
					<rect id="baloon-skin-girl-to-left-neck" x="-415.2" y="379" transform="matrix(-0.9781 -0.2079 0.2079 -0.9781 -896.9666 667.9048)" fill="#FFB685" stroke="#000000" stroke-width="0.25" stroke-miterlimit="10" width="3.7" height="4.2"/>
				<path id="baloon-skin-girl-to-left-head" fill="#FFB685" stroke="#000000" stroke-width="0.25" stroke-miterlimit="10" d="
					M-426.8,364.5c0.5-1.9,2.2-1.8,2.8-3.9c2.2-8.2,8.6-9.8,14.5-8.6c7.9,1.7,13,9.1,11.4,16.5s-9.2,12-17.2,10.5
					C-422.3,377.6-428,369.9-426.8,364.5z"/>
			</g>
			<path fill="#99026B" stroke="#000000" stroke-width="0.25" stroke-miterlimit="10" d="M-410.6,397.6c1.5-7,2.6-15-2.2-16
				c-8.7-1.9-13.8,5.2-15.4,12.3l0,0l-3,14l17.6,3.7L-410.6,397.6L-410.6,397.6z"/>
			<path fill="#470031" d="M-410.6,397.6c1.4-6.7,2.4-14.2-1.5-15.9c1.8,3,0.9,9.2-0.3,14.9l0,0l-3.1,14.6l2,0.4L-410.6,397.6
				L-410.6,397.6z"/>
			<path fill="#FF11FF" stroke="#000000" stroke-width="0.25" stroke-miterlimit="10" d="M-425.9,394.4c1.5-6.6,6.1-13.3,13.8-12.6
				c-0.3-0.2-0.5-0.2-0.8-0.3c-8.7-1.9-13.8,5.2-15.4,12.3l0,0l-3,14l2.3,0.5L-425.9,394.4L-425.9,394.4z"/>
			<path id="baloon-hair-girl-to-left" stroke="#000000" stroke-width="0.25" stroke-miterlimit="10" d="M-426.5,357.8
				c0,0,2.8,2.8,10.3-1.5c0.6,3.1,3.3,7.6,7.3,8.7c4.1,1.1,0.3,5.4-0.7,6.8c-1.1,1.5-5.2,12.2-2.5,18.1s5,8,9,8.9s4.8-2.3,4.8-2.3
				s-0.8,1.6-4.6,0.8c-3.7-0.8-4-4.4-3.4-7c0.5-2.5,1.4-5.7,8.5-12.3c5-4.7,6.7-13.6,2.5-19c-4.4-5.2-8.4-7-15.5-8.1
				C-418.8,349.6-424.9,355.2-426.5,357.8z"/>
			<path opacity="0.85" fill="#5B3E49" enable-background="new    " d="M-408,372.7c-4.7,7.3-4.9,13.5-4.3,17.3
				c0.6,1.2,1.1,2.3,1.7,3.2c-4-11.2,3.5-15.2,8.3-23.7c4.4-7.9,0.6-14.5-3.9-17.7c-0.5-0.2-1.1-0.3-1.5-0.4
				C-405.8,354.2-401.1,362.4-408,372.7z"/>
			<path opacity="0.85" fill="#5B3E49" enable-background="new    " d="M-426.5,357.7c0,0,1.5,1.5,5.4,0.6l0,0
				c2.5-5.5,6.8-7.1,10-7.6C-418.9,349.7-424.9,355.2-426.5,357.7z"/>
			<path opacity="0.85" fill="#5B3E49" enable-background="new    " d="M-410.3,353.7c0.7-1.1,1.2-1.9,1.6-2.5
				c-0.6-0.1-1.1-0.2-1.7-0.4c-1.6,1-3.8,4-3.4,7.9c0.5,4.3,3.3,5.3,5,6.3C-412.9,362.3-412.2,356.9-410.3,353.7z"/>
			<path d="M-420.5,371.8c-2,1.3-3.8,1-3.9,1s-0.1,0-0.2,0c0.2,0.4,0.6,0.7,0.8,1c0.8,0,2.2-0.2,3.8-1.2c0.2-0.2,0.3-0.4,0.1-0.7
				C-420,371.6-420.2,371.6-420.5,371.8z"/>
			<circle cx="-416.6" cy="366.5" r="0.9"/>
			<path fill="none" stroke="#000000" stroke-linecap="round" stroke-miterlimit="10" d="M-408.5,366.9c0.1,0.5,0,1.2-0.3,2"/>
		</g>
	</g>
	<g>
		<g>
			<polygon fill="#A5937F" points="-437.4,428.8 -442.6,402.3 -411.4,402.3 -416.4,428.8 			"/>
			<path d="M-411.5,402.4l-5,26.3h-20.8l-5.1-26.3H-411.5 M-411.3,402.2h-0.3h-30.9h-0.3l0.1,0.3l5.1,26.3v0.2h0.2h20.8h0.2v-0.2
				l5-26.3L-411.3,402.2L-411.3,402.2z"/>
		</g>
		<polygon fill="#E0D1BE" points="-435.8,402.4 -442.4,402.4 -437.3,428.7 -433.3,428.7 		"/>
		<polygon fill="#48372A" points="-422.5,428.7 -416.5,428.7 -411.5,402.4 -420.9,402.4 		"/>
		<line fill="none" stroke="#000000" stroke-width="0.25" stroke-miterlimit="10" x1="-441.8" y1="406" x2="-412.3" y2="406"/>
		<line fill="none" stroke="#000000" stroke-width="0.25" stroke-miterlimit="10" x1="-441" y1="410.2" x2="-412.8" y2="410.2"/>
		<line fill="none" stroke="#000000" stroke-width="0.25" stroke-miterlimit="10" x1="-440.4" y1="414.3" x2="-413.4" y2="414.3"/>
		<line fill="none" stroke="#000000" stroke-width="0.25" stroke-miterlimit="10" x1="-439.4" y1="418.4" x2="-414.4" y2="418.4"/>
		<line fill="none" stroke="#000000" stroke-width="0.25" stroke-miterlimit="10" x1="-438.8" y1="422.5" x2="-415.3" y2="422.5"/>
		<line fill="none" stroke="#000000" stroke-width="0.25" stroke-miterlimit="10" x1="-437.8" y1="426.7" x2="-415.9" y2="426.7"/>
	</g>
	<g id="girl-to-left-hand">
		<path id="baloon-skin-girl-to-left-hand" fill="#FFB685" stroke="#000000" stroke-width="0.25" stroke-miterlimit="10" d="
			M-419.2,390.9c-0.6,1.2-2.5,6.8-3.5,8.1c-1,1.4-2.5,0.4-3.6,0.8s-0.4,1.1,0.6,1.1s1.6,1.1-0.2,1s-3.1,0.7-3.3,1.4
			c-0.1,0.7,0.6,1.4,1.5,1.7s3.2,0.1,5.1-2.7c1.9-2.9,6.8-11.8,6.8-11.8S-418.1,388.1-419.2,390.9z"/>
		<path fill="#4F023F" stroke="#000000" stroke-width="0.25" stroke-miterlimit="10" d="M-421.4,390.3l6.5,3c0,0,1.1-3.4,1.5-4.9
			c0.4-1.4,0.5-3.7-1.4-4.2C-416.8,383.7-418.8,384.5-421.4,390.3z"/>
	</g>
	<g id="girl-to-right-hands">
		<path id="baloon-skin-girl-to-right-hand" fill="#FFB685" stroke="#000000" stroke-width="0.25" stroke-miterlimit="10" d="
			M-438.1,390.5c0,0,4.8,9,6.8,11.8c1.9,2.9,4.3,3,5.1,2.7s1.6-1,1.5-1.7s-1.4-1.6-3.3-1.4s-1.2-1-0.2-1s1.7-0.7,0.6-1.1
			s-2.5,0.6-3.6-0.8c-1-1.4-3-6.9-3.5-8.1C-435.9,388.1-438.1,390.5-438.1,390.5z"/>
		<path fill="#4F023F" stroke="#000000" stroke-width="0.25" stroke-miterlimit="10" d="M-439.2,384.2c-1.9,0.5-1.9,2.8-1.4,4.2
			c0.4,1.4,1.5,4.9,1.5,4.9l6.5-3C-435.2,384.5-437.3,383.7-439.2,384.2z"/>
	</g>
</g>
</svg>
