<?xml version="1.0" encoding="utf-8"?>
<!-- Generator: Adobe Illustrator 18.1.1, SVG Export Plug-In . SVG Version: 6.00 Build 0)  -->
<svg version="1.1" id="girl-to-left-top" xmlns="http://www.w3.org/2000/svg" xmlns:xlink="http://www.w3.org/1999/xlink" x="0px"
	 y="0px" width="35.5px" height="60.2px" viewBox="-493 354.8 35.5 60.2" enable-background="new -493 354.8 35.5 60.2"
	 xml:space="preserve">
<g>
	<g>
		
			<rect id="skin-girl-to-left-neck" x="-477" y="382.9" fill="#FFB685" stroke="#000000" stroke-width="0.25" stroke-miterlimit="10" width="3.7" height="4.2"/>
		<path id="skin-girl-to-left-head" fill="#FFB685" stroke="#000000" stroke-width="0.25" stroke-miterlimit="10" d="M-491.8,371.6
			c0.1-2,1.8-2.2,1.9-4.4c0.4-8.5,6.4-11.4,12.4-11.4c8.1,0,14.6,6.2,14.6,13.8c0,7.6-6.5,13.7-14.6,13.8
			C-484.8,383.5-492,377.1-491.8,371.6z"/>
	</g>
	<path fill="#99026B" stroke="#000000" stroke-width="0.25" stroke-miterlimit="10" d="M-469.2,400.6c0-7.2-0.6-15.2-5.5-15.2
		c-8.9,0-12.4,8-12.5,15.2l0,0v14.3h18V400.6L-469.2,400.6z"/>
	<path fill="#470031" d="M-469.2,400.6c0-6.9-0.6-14.4-4.8-15.2c2.4,2.6,2.8,8.8,2.8,14.6l0,0v14.9h2V400.6L-469.2,400.6z"/>
	<path fill="#FF11FF" stroke="#000000" stroke-width="0.25" stroke-miterlimit="10" d="M-484.8,400.6c0.1-6.8,3.2-14.3,10.9-15.2
		c-0.3-0.1-0.5-0.1-0.8-0.1c-8.9,0-12.4,8-12.5,15.2l0,0v14.3h2.4V400.6L-484.8,400.6z"/>
	<path id="hair-girl-to-left" stroke="#000000" stroke-width="0.25" stroke-miterlimit="10" d="M-493,365c0,0,3.3,2.2,9.8-3.6
		c1.2,2.9,4.8,6.8,9,7s1.4,5.2,0.7,6.8c-0.8,1.7-2.6,13,1.3,18.2c3.9,5.2,6.6,6.8,10.6,6.8s4.2-3.2,4.2-3.2s-0.5,1.7-4.3,1.7
		s-4.8-3.5-4.8-6.1s0.2-5.9,5.8-13.8c3.9-5.6,3.7-14.7-1.5-19.1c-5.4-4.2-9.7-5.1-16.8-4.7C-487.2,355.4-492,362.1-493,365z"/>
	<path opacity="0.85" fill="#5B3E49" enable-background="new    " d="M-471.8,375.8c-3.1,8.1-2,14.2-0.6,17.8c0.8,1.1,1.5,2,2.3,2.8
		c-6.2-10.1,0.3-15.6,3.2-24.9c2.7-8.6-2.4-14.3-7.5-16.5c-0.5-0.1-1.1-0.1-1.6-0.1C-473.5,357.1-467.2,364.2-471.8,375.8z"/>
	<path opacity="0.85" fill="#5B3E49" enable-background="new    " d="M-493,364.9c0,0,1.8,1.2,5.4-0.5l0,0c1.3-5.9,5.2-8.4,8.2-9.5
		C-487.3,355.5-492,362.1-493,364.9z"/>
	<path opacity="0.85" fill="#5B3E49" enable-background="new    " d="M-478,357.6c0.5-1.2,0.8-2.1,1-2.8c-0.6,0-1.1,0-1.7,0
		c-1.4,1.3-2.9,4.7-1.7,8.4c1.4,4.1,4.3,4.5,6.2,5.1C-478.8,366.6-479.2,361.1-478,357.6z"/>
	<path d="M-484.2,377.4c-1.7,1.7-3.5,1.8-3.6,1.8c-0.1,0-0.1,0-0.2,0c0.3,0.3,0.7,0.6,1,0.8c0.8-0.2,2.1-0.7,3.5-2
		c0.2-0.2,0.2-0.5,0-0.7C-483.8,377.1-484,377.2-484.2,377.4z"/>
	<circle cx="-481.5" cy="371.4" r="0.9"/>
	<path fill="none" stroke="#000000" stroke-linecap="round" stroke-miterlimit="10" d="M-473.5,370.1c0.2,0.5,0.3,1.2,0.1,2"/>
</g>
</svg>
