<?xml version="1.0" encoding="utf-8"?>
<!-- Generator: Adobe Illustrator 18.1.1, SVG Export Plug-In . SVG Version: 6.00 Build 0)  -->
<svg version="1.1" id="girl-to-left-legs" xmlns="http://www.w3.org/2000/svg" xmlns:xlink="http://www.w3.org/1999/xlink" x="0px"
	 y="0px" width="11.1px" height="31.2px" viewBox="-505 369.8 11.1 31.2" enable-background="new -505 369.8 11.1 31.2"
	 xml:space="preserve">
<g>
	<path id="skin-girl-to-left-legs" fill="#FFB685" stroke="#000000" stroke-width="0.25" stroke-miterlimit="10" d="M-500.2,382.5
		c0.6,3.2,2.9,11.2,2.9,12.2s-0.2,2-2.2,1.8c-1.6-0.2-3.9,0.2-5,2.2c-0.5,1,0.2,2.2,1.3,2.2h7c1.2,0,2.2,0.3,2.2-1.9
		c0-2.2-0.1-9.8-1.5-13.7s2.6-15.7-3.6-15.5C-503.1,370-500.9,378.5-500.2,382.5z"/>
	<path stroke="#000000" stroke-width="0.25" stroke-miterlimit="10" d="M-496.2,398.3L-496.2,398.3h-3.5l0,0
		c-1.6-0.1-2.8-0.6-2.8-1.2c0-0.1,0.1-0.3,0.2-0.4c-1.1,0.4-2.1,1.2-2.6,2.7c-0.2,0.6,0.3,1.3,1,1.3h7.7c1.2,0,2.2,0.3,2.2-1.9
		c0-0.3,0-0.7,0-1.2C-494.5,398.1-495.3,398.3-496.2,398.3z"/>
</g>
</svg>
