<?xml version="1.0" encoding="utf-8"?>
<!-- Generator: Adobe Illustrator 18.1.1, SVG Export Plug-In . SVG Version: 6.00 Build 0)  -->
<svg version="1.1" id="girl-to-right-hands" xmlns="http://www.w3.org/2000/svg" xmlns:xlink="http://www.w3.org/1999/xlink"
	 x="0px" y="0px" width="11px" height="24px" viewBox="-506 373 11 24" enable-background="new -506 373 11 24"
	 xml:space="preserve">
<g>
	<path id="skin-girl-to-right-hands" fill="#FFB685" stroke="#000000" stroke-width="0.25" stroke-miterlimit="10" d="M-501,380.8
		c0.2,1.4,0.4,7.3,1,8.8s2.3,1.1,3.2,1.8c0.9,0.7,0.1,1.2-0.9,0.9c-1-0.3-1.9,0.6-0.1,1s2.8,1.6,2.6,2.4c-0.2,0.8-1,1.2-1.9,1.2
		s-3.1-0.8-4.1-4.1c-1-3.3-3-13.4-3-13.4S-501.4,377.8-501,380.8z"/>
	<path fill="#4F023F" stroke="#000000" stroke-width="0.25" stroke-miterlimit="10" d="M-498.8,380.8l-7.1,1c0,0,0-3.6,0-5.1
		s0.6-3.7,2.6-3.6S-499.6,374.5-498.8,380.8z"/>
</g>
</svg>
