<?xml version="1.0" encoding="utf-8"?>
<!-- Generator: Adobe Illustrator 18.1.1, SVG Export Plug-In . SVG Version: 6.00 Build 0)  -->
<svg version="1.1" id="girl-to-right-top" xmlns="http://www.w3.org/2000/svg" xmlns:xlink="http://www.w3.org/1999/xlink" x="0px"
	 y="0px" width="35.5px" height="60.1px" viewBox="-493 354.9 35.5 60.1" enable-background="new -493 354.9 35.5 60.1"
	 xml:space="preserve">
<g>
	<g>
		
			<rect id="skin-girl-to-right-neck" x="-477.2" y="382.9" fill="#FFB685" stroke="#000000" stroke-width="0.25" stroke-miterlimit="10" width="3.7" height="4.2"/>
		<path id="skin-girl-to-right-head" fill="#FFB685" stroke="#000000" stroke-width="0.25" stroke-miterlimit="10" d="M-458.8,371.6
			c-0.1-2-1.8-2.2-1.9-4.4c-0.4-8.5-6.4-11.4-12.4-11.4c-8.1,0-14.6,6.2-14.6,13.8s6.5,13.7,14.6,13.8
			C-465.8,383.6-458.6,377.1-458.8,371.6z"/>
	</g>
	<path fill="#99026B" stroke="#000000" stroke-width="0.25" stroke-miterlimit="10" d="M-481.3,400.6c0-7.2,0.6-15.2,5.5-15.2
		c8.9,0,12.4,8,12.5,15.2l0,0v14.3h-18V400.6L-481.3,400.6z"/>
	<path fill="#470031" d="M-481.3,400.6c0-6.9,0.6-14.4,4.8-15.2c-2.4,2.6-2.8,8.8-2.8,14.6l0,0v14.9h-2V400.6L-481.3,400.6z"/>
	<path fill="#FF11FF" stroke="#000000" stroke-width="0.25" stroke-miterlimit="10" d="M-465.7,400.6c-0.1-6.8-3.2-14.3-10.9-15.2
		c0.3-0.1,0.5-0.1,0.8-0.1c8.9,0,12.4,8,12.5,15.2l0,0v14.3h-2.4V400.6L-465.7,400.6z"/>
	<path id="hair-girl-to-right" stroke="#000000" stroke-width="0.25" stroke-miterlimit="10" d="M-457.5,365.1c0,0-3.3,2.2-9.8-3.6
		c-1.2,2.9-4.8,6.8-9,7s-1.4,5.2-0.7,6.8c0.8,1.7,2.6,13-1.3,18.2s-6.6,6.8-10.6,6.8s-4.1-3.1-4.1-3.1s0.5,1.7,4.3,1.7
		s4.8-3.5,4.8-6.1s-0.2-5.9-5.7-13.8c-3.9-5.6-3.6-14.8,1.5-19.1c5.2-4.3,9.5-5.2,16.6-4.8C-463.3,355.4-458.5,362.1-457.5,365.1z"
		/>
	<path opacity="0.85" fill="#5B3E49" enable-background="new    " d="M-478.9,375.9c3.1,8.1,2,14.2,0.6,17.8c-0.8,1.1-1.5,2-2.3,2.8
		c6.2-10.1-0.3-15.6-3.2-24.9c-2.7-8.6,2.4-14.3,7.5-16.5c0.5-0.1,1.1-0.1,1.6-0.1C-477.1,357.3-483.3,364.4-478.9,375.9z"/>
	<path opacity="0.85" fill="#5B3E49" enable-background="new    " d="M-457.5,365.1c0,0-1.8,1.2-5.4-0.5l0,0
		c-1.3-5.9-5.2-8.4-8.2-9.5C-463.2,355.6-458.5,362.3-457.5,365.1z"/>
	<path opacity="0.85" fill="#5B3E49" enable-background="new    " d="M-472.5,357.8c-0.5-1.2-0.8-2.1-1-2.8c0.6,0,1.1,0,1.7,0
		c1.4,1.3,2.9,4.7,1.7,8.4c-1.4,4.1-4.3,4.5-6.2,5.1C-471.7,366.8-471.3,361.3-472.5,357.8z"/>
	<path d="M-466.4,377.4c1.7,1.7,3.5,1.8,3.6,1.8s0.1,0,0.2,0c-0.3,0.3-0.7,0.6-1,0.8c-0.8-0.2-2.1-0.7-3.5-2c-0.2-0.2-0.2-0.5,0-0.7
		C-466.9,377.1-466.6,377.3-466.4,377.4z"/>
	<circle cx="-469.1" cy="371.4" r="0.9"/>
	<path fill="none" stroke="#000000" stroke-linecap="round" stroke-miterlimit="10" d="M-477,370.1c-0.2,0.5-0.3,1.2-0.1,2"/>
</g>
</svg>
